<svg data-v-2479d879="" data-v-1df47d1c="" width="122" height="52" viewBox="0 0 122 52" fill="none" xmlns="http://www.w3.org/2000/svg"><path d="M72.8507 38.6833C67.0108 42.9877 58.5463 45.2843 51.2585 45.2843C41.0399 45.2843 31.8405 41.5048 24.8807 35.2188C24.3339 34.7244 24.8239 34.0508 25.48 34.4357C32.9909 38.8058 42.2778 41.4348 51.871 41.4348C58.3407 41.4348 65.4579 40.0962 72.0021 37.3185C72.9907 36.8985 73.8174 37.9659 72.8507 38.6833Z" fill="black" data-v-2479d879=""></path><path d="M75.2781 35.9056C74.5345 34.952 70.3438 35.4551 68.4628 35.6782C67.8897 35.7481 67.8023 35.2495 68.3184 34.8908C71.6561 32.5417 77.1329 33.2197 77.7716 34.0071C78.4102 34.7989 77.6053 40.2888 74.4689 42.9091C73.9877 43.3115 73.5284 43.0972 73.7427 42.5635C74.447 40.805 76.0262 36.8636 75.2781 35.9056Z" fill="black" data-v-2479d879=""></path><path d="M68.5945 18.3069V16.0235C68.5945 15.6779 68.857 15.446 69.1719 15.446H79.395C79.723 15.446 79.9855 15.6823 79.9855 16.0235V17.9788C79.9811 18.3069 79.7055 18.7356 79.2156 19.4136L73.9182 26.977C75.8867 26.9289 77.9645 27.222 79.7493 28.2281C80.1517 28.4556 80.2611 28.788 80.2917 29.1161V31.5527C80.2917 31.8851 79.9243 32.2745 79.5393 32.0732C76.3941 30.4241 72.2165 30.2447 68.7388 32.0907C68.3845 32.2832 68.0127 31.8983 68.0127 31.5658V29.2517C68.0127 28.8799 68.0171 28.2456 68.3889 27.6813L74.5262 18.88H69.185C68.857 18.88 68.5945 18.6481 68.5945 18.3069Z" fill="black" data-v-2479d879=""></path><path d="M31.302 32.5545H28.1918C27.8943 32.5327 27.6581 32.3096 27.6362 32.0252V16.063C27.6362 15.7436 27.9031 15.4899 28.2355 15.4899H31.1358C31.4376 15.503 31.6782 15.7349 31.7001 16.0236V18.1102H31.7569C32.5137 16.0936 33.9354 15.1531 35.8514 15.1531C37.798 15.1531 39.0141 16.0936 39.889 18.1102C40.6414 16.0936 42.3518 15.1531 44.1847 15.1531C45.4883 15.1531 46.9143 15.6911 47.7848 16.8985C48.7691 18.2414 48.5679 20.1924 48.5679 21.9028L48.5635 31.9771C48.5635 32.2965 48.2967 32.5545 47.9642 32.5545H44.8584C44.5478 32.5327 44.2984 32.2833 44.2984 31.9771V23.517C44.2984 22.8433 44.3597 21.1635 44.2109 20.5249C43.9791 19.4531 43.2836 19.1513 42.3824 19.1513C41.63 19.1513 40.8426 19.6544 40.5233 20.4593C40.204 21.2642 40.2346 22.6115 40.2346 23.517V31.9771C40.2346 32.2965 39.9677 32.5545 39.6353 32.5545H36.5294C36.2145 32.5327 35.9695 32.2833 35.9695 31.9771L35.9651 23.517C35.9651 21.7366 36.2582 19.1163 34.0491 19.1163C31.8138 19.1163 31.9013 21.671 31.9013 23.517V31.9771C31.9013 32.2965 31.6345 32.5545 31.302 32.5545Z" fill="black" data-v-2479d879=""></path><path d="M88.7867 15.1531C93.4017 15.1531 95.8995 19.1163 95.8995 24.1556C95.8995 29.0244 93.1392 32.887 88.7867 32.887C84.2548 32.887 81.7876 28.9238 81.7876 23.985C81.7876 19.0157 84.2854 15.1531 88.7867 15.1531ZM88.8129 18.412C86.5207 18.412 86.3764 21.5354 86.3764 23.482C86.3764 25.433 86.3458 29.5974 88.7867 29.5974C91.197 29.5974 91.3107 26.2379 91.3107 24.1906C91.3107 22.8433 91.2539 21.2335 90.847 19.9562C90.4971 18.8451 89.8016 18.412 88.8129 18.412Z" fill="black" data-v-2479d879=""></path><path d="M101.884 32.5545H98.7865C98.4759 32.5327 98.2265 32.2833 98.2265 31.9771L98.2222 16.0105C98.2484 15.7174 98.5065 15.4899 98.8215 15.4899H101.704C101.975 15.503 102.199 15.6868 102.26 15.9361V18.377H102.317C103.187 16.1942 104.408 15.1531 106.555 15.1531C107.951 15.1531 109.311 15.6561 110.186 17.0341C111 18.3114 111 20.4593 111 22.0034V32.0515C110.965 32.3315 110.707 32.5545 110.401 32.5545H107.282C106.997 32.5327 106.761 32.3227 106.73 32.0515V23.3814C106.73 21.636 106.932 19.0813 104.784 19.0813C104.027 19.0813 103.331 19.5887 102.986 20.3586C102.548 21.3341 102.492 22.3053 102.492 23.3814V31.9771C102.487 32.2965 102.216 32.5545 101.884 32.5545Z" fill="black" data-v-2479d879=""></path><path d="M60.4447 24.9299V24.2563C58.1962 24.2563 55.8209 24.7375 55.8209 27.3884C55.8209 28.7313 56.5165 29.6412 57.7107 29.6412C58.5856 29.6412 59.3686 29.1032 59.8629 28.2283C60.4753 27.1522 60.4447 26.1417 60.4447 24.9299ZM63.5812 32.5108C63.3756 32.6946 63.0781 32.7077 62.8463 32.5852C61.8139 31.7278 61.6302 31.3297 61.0615 30.5117C59.3555 32.2527 58.1481 32.7733 55.9347 32.7733C53.3188 32.7733 51.2803 31.1591 51.2803 27.9264C51.2803 25.4024 52.6495 23.6832 54.5961 22.8433C56.2846 22.0997 58.6424 21.9685 60.4447 21.7629V21.3604C60.4447 20.6211 60.5016 19.7463 60.0685 19.1076C59.6879 18.5345 58.9618 18.2983 58.3231 18.2983C57.1376 18.2983 56.079 18.9064 55.8209 20.1662C55.7684 20.4462 55.5628 20.7218 55.2829 20.7349L52.2645 20.4112C52.0108 20.3543 51.7308 20.1487 51.8008 19.7594C52.4964 16.1024 55.7991 15 58.7562 15C60.2697 15 62.247 15.4024 63.4412 16.5485C64.9547 17.9615 64.8104 19.8469 64.8104 21.8985V26.7453C64.8104 28.202 65.414 28.8407 65.9827 29.6281C66.1839 29.908 66.2277 30.2449 65.974 30.4549C65.3397 30.9842 64.2111 31.9684 63.5899 32.5196L63.5812 32.5108Z" fill="black" data-v-2479d879=""></path><path d="M19.6708 24.9299V24.2563C17.4223 24.2563 15.047 24.7375 15.047 27.3884C15.047 28.7313 15.7425 29.6412 16.9368 29.6412C17.8116 29.6412 18.5947 29.1032 19.089 28.2283C19.7014 27.1522 19.6708 26.1417 19.6708 24.9299ZM22.8072 32.5108C22.6016 32.6946 22.3042 32.7077 22.0723 32.5852C21.04 31.7278 20.8562 31.3297 20.2876 30.5117C18.5815 32.2527 17.3742 32.7733 15.1607 32.7733C12.5448 32.7733 10.5063 31.1591 10.5063 27.9264C10.5063 25.4024 11.8755 23.6832 13.8222 22.8433C15.5107 22.0997 17.8685 21.9685 19.6708 21.7629V21.3604C19.6708 20.6211 19.7276 19.7463 19.2946 19.1076C18.914 18.5345 18.1878 18.2983 17.5492 18.2983C16.3637 18.2983 15.3051 18.9064 15.047 20.1662C14.9945 20.4462 14.7889 20.7218 14.5089 20.7349L11.4906 20.4112C11.2369 20.3543 10.9569 20.1487 11.0269 19.7594C11.7224 16.1024 15.0251 15 17.9822 15C19.4958 15 21.473 15.4024 22.6673 16.5485C24.1808 17.9615 24.0364 19.8469 24.0364 21.8985V26.7453C24.0364 28.202 24.6401 28.8407 25.2088 29.6281C25.41 29.908 25.4538 30.2449 25.2 30.4549C24.5658 30.9842 23.4372 31.9684 22.816 32.5196L22.8072 32.5108Z" fill="black" data-v-2479d879=""></path></svg>