<svg data-v-19ffbcee="" data-v-1df47d1c="" width="60" height="51" viewBox="0 0 60 51" fill="none" xmlns="http://www.w3.org/2000/svg"><path data-v-19ffbcee="" d="M44.0419 14.6146C43.8282 14.7811 40.0547 16.9162 40.0547 21.6638C40.0547 27.1551 44.8563 29.0978 45 29.1459C44.9779 29.2643 44.2372 31.8065 42.4684 34.3967C40.8912 36.6762 39.244 38.9519 36.7381 38.9519C34.2323 38.9519 33.5874 37.4902 30.6946 37.4902C27.8756 37.4902 26.8732 39 24.5811 39C22.289 39 20.6897 36.8908 18.8509 34.3005C16.7209 31.2588 15 26.5335 15 22.0486C15 14.8551 19.6579 11.04 24.2421 11.04C26.6779 11.04 28.7084 12.646 30.2377 12.646C31.6933 12.646 33.9633 10.9438 36.7344 10.9438C37.7847 10.9438 41.5582 11.04 44.0419 14.6146ZM35.4189 7.89839C36.5649 6.53295 37.3756 4.63836 37.3756 2.74377C37.3756 2.48105 37.3535 2.21462 37.3056 2C35.441 2.07031 33.2226 3.24702 31.8849 4.80488C30.8347 6.0038 29.8544 7.89839 29.8544 9.81888C29.8544 10.1075 29.9023 10.3961 29.9245 10.4886C30.0424 10.5109 30.234 10.5368 30.4256 10.5368C32.0986 10.5368 34.2028 9.41184 35.4189 7.89839Z" fill="black"></path></svg>