<svg data-v-d1522fcc="" data-v-1df47d1c="" width="123" height="52" viewBox="0 0 123 52" fill="none" xmlns="http://www.w3.org/2000/svg"><path data-v-d1522fcc="" d="M98.5439 23.3245C96.8223 23.7218 92.2758 23.9425 92.2758 23.9425L91.7167 25.7375C91.7167 25.7375 93.9679 25.5463 95.6158 25.7081C95.6158 25.7081 96.1455 25.664 96.2044 26.2967C96.2338 26.9441 96.1602 27.6209 96.1602 27.6209C96.1602 27.6209 96.1161 28.0182 95.5717 28.1212C94.939 28.2242 90.672 28.4155 90.672 28.4155L89.9804 30.7402C89.9804 30.7402 89.7303 31.2699 90.3041 31.1228C90.8338 30.9757 95.3068 30.1223 95.8954 30.24C96.5134 30.3871 97.2196 31.2405 97.0136 32.0056C96.7782 32.9326 92.3052 35.7871 89.5979 35.5958C89.5979 35.5958 88.1706 35.6841 86.9788 33.7566C85.8311 31.9173 87.3761 28.4596 87.3761 28.4596C87.3761 28.4596 86.6845 26.8411 87.1995 26.2525C87.1995 26.2525 87.4938 26.0024 88.3766 25.9288L89.4802 23.6629C89.4802 23.6629 88.2295 23.7365 87.4938 22.8242C86.817 21.9414 86.7581 21.5588 87.2878 21.3234C87.8469 21.0291 93.0262 20.1022 96.5869 20.2199C96.5869 20.2199 97.8376 20.0727 98.9411 22.2357C98.9411 22.2357 99.4414 23.1185 98.5586 23.3245M85.1249 32.035C84.6835 33.1092 83.4622 34.2421 81.9908 33.5506C80.49 32.8443 78.1211 28.0182 78.1211 28.0182C78.1211 28.0182 77.2383 26.2231 77.0617 26.282C77.0617 26.282 76.8704 25.9288 76.7674 27.9005C76.6203 29.8574 76.7969 33.6683 75.9876 34.2715C75.2519 34.8601 74.3691 34.61 73.8688 33.9184C73.4568 33.2269 73.2803 31.5642 73.5157 28.6656C73.7805 25.767 74.4427 22.6771 75.2813 21.7207C76.1642 20.7496 76.8704 21.4558 77.1353 21.7207C77.1353 21.7207 78.2682 22.7506 80.181 25.7964L80.5047 26.3555C80.5047 26.3555 82.241 29.2541 82.4175 29.2394C82.4175 29.2394 82.5647 29.3866 82.6824 29.2689C82.8589 29.2247 82.8001 28.283 82.8001 28.283C82.8001 28.283 82.4764 25.149 80.8579 19.852C80.8579 19.852 80.6225 19.1752 80.7843 18.5278C80.9314 17.9392 81.5641 18.2335 81.5641 18.2335C81.5641 18.2335 84.0066 19.4106 85.1984 23.3833C86.3755 27.3561 85.581 30.9609 85.1396 32.035M73.1478 21.8384C72.9124 22.2504 72.8094 22.8242 71.7942 22.9861C71.7942 22.9861 61.9359 23.6776 61.4504 24.3692C61.4504 24.3692 61.1267 24.7811 61.6564 24.8841C62.2155 25.0019 64.452 25.2961 65.5114 25.355C66.6591 25.355 70.5141 25.3844 71.9266 27.1206C71.9266 27.1206 72.7359 27.9446 72.7064 29.8133C72.677 31.7261 72.3386 32.4029 71.5882 33.0944C70.8084 33.7418 64.1283 36.7435 59.8171 32.1528C59.8171 32.1528 57.8455 29.9457 60.5087 28.2683C60.5087 28.2683 62.4215 27.0912 67.3212 28.4596C67.3212 28.4596 68.7926 28.9893 68.7337 29.5337C68.6454 30.1223 67.5125 30.7108 65.8645 30.6814C64.2754 30.6372 63.0983 29.8721 63.3337 30.0045C63.5545 30.0781 61.6122 29.0629 61.009 29.7544C60.4204 30.4018 60.5676 30.7844 61.1561 31.1816C62.6275 32.035 68.41 31.7261 70.1315 29.7985C70.1315 29.7985 70.8231 29.0187 69.7784 28.386C68.7484 27.7975 65.7468 27.4296 64.5844 27.3855C63.4809 27.3266 59.3463 27.3855 58.7283 26.3114C58.7283 26.3114 58.1398 25.5463 58.7872 23.4569C59.464 21.2498 64.2754 20.3964 66.3648 20.2199C66.3648 20.2199 72.1032 19.9844 73.1773 21.1616C73.1773 21.1616 73.3244 21.4264 73.1478 21.8237M56.8744 34.7718C56.1828 35.2868 54.7115 35.0661 54.2848 34.4775C53.8728 33.9626 53.7256 31.932 53.7992 28.7392C53.9022 25.4727 53.9463 21.4705 54.682 20.8231C55.4177 20.1904 55.8591 20.7496 56.1534 21.1763C56.4477 21.6177 56.8302 22.1032 56.8891 23.1185C56.9774 24.1485 57.2275 29.4454 57.2275 29.4454C57.2275 29.4454 57.5512 34.2715 56.8891 34.7718M58.3458 17.5567C56.3153 18.2482 54.9322 18.0275 53.7551 17.5125C53.2401 18.4395 52.9311 18.7191 52.5485 18.7779C51.96 18.8368 51.445 17.8951 51.3714 17.6008C51.2537 17.3801 50.9742 16.9828 51.3126 16.0853C50.1649 15.0553 50.0766 13.6722 50.2826 12.7453C50.5475 11.6564 52.4897 7.566 58.3752 7.08045C58.3752 7.08045 61.2591 6.87446 61.7594 8.40469H61.8476C61.8476 8.40469 64.6433 8.40469 64.5844 10.906C64.5844 13.4074 61.4945 16.5267 58.3458 17.6008M60.9648 10.4352C59.1109 10.7295 56.2564 13.2014 54.888 15.2466C56.9921 15.6292 60.6705 15.482 62.3185 12.1567C62.3185 12.1567 63.0983 10.0673 60.9648 10.4352ZM52.8281 12.0537C52.2395 13.0101 52.2101 13.5839 52.4897 13.9665C53.1812 12.9365 54.4025 11.318 56.2417 10.0526C54.8292 10.1998 53.6374 10.7883 52.8281 12.0537ZM102.958 34.6688C101.604 37.9941 100.457 41.3636 99.7945 46.4104C99.7945 46.4104 99.6474 47.3962 98.8381 47.0725C98.0289 46.7783 96.7046 45.454 96.4104 43.5854C96.1161 41.1429 97.2049 37.023 99.4267 32.2852C98.7793 31.2552 98.3232 29.725 98.691 27.5768C98.691 27.5768 99.2795 23.604 103.252 20.0139C103.252 20.0139 103.723 19.6166 103.988 19.749C104.312 19.8962 104.179 21.1616 103.914 21.809C103.679 22.4269 101.913 25.4874 101.913 25.4874C101.913 25.4874 100.81 27.5768 101.119 29.21C103.208 26.0024 107.961 19.4989 110.903 21.5588C112.772 22.8831 112.772 27.1501 111.374 29.622C110.271 31.5789 107.151 35.6252 102.987 34.6835M109.108 24.6781C108.02 25.8553 106.077 28.0917 104.547 31.1228C106.166 30.9462 107.74 30.0487 108.226 29.5926C109.005 28.901 110.8 27.0324 110.521 24.5604C110.521 24.5604 110.344 23.2656 109.108 24.6781ZM43.1906 36.405C37.9819 37.9941 33.0675 37.2584 30.3896 36.5522C30.316 37.641 30.1983 38.0971 30.0217 38.2737C29.8157 38.5091 28.1089 39.4802 27.1672 38.0971C26.7552 37.435 26.5493 36.2432 26.4315 35.1544C20.3989 32.4176 17.6033 28.386 17.515 28.2389C17.3678 28.0917 15.9995 26.6645 17.3678 24.8989C18.6479 23.3098 22.8855 21.706 26.6817 21.0733C26.8288 17.8362 27.1819 15.3349 27.6381 14.2314C28.1825 12.9071 28.874 14.0842 29.492 14.967C29.9923 15.6292 30.3013 18.4689 30.3307 20.7349C32.8026 20.6171 34.3034 20.7937 37.0549 21.3234C40.6745 21.9414 43.0876 23.7953 42.8963 25.8847C42.7197 27.9446 40.8364 28.798 40.1007 28.8569C39.365 28.9157 38.1879 28.3713 38.1879 28.3713C37.3639 27.9888 38.1143 27.6356 39.0707 27.2236C40.1301 26.7087 39.8947 26.1937 39.8947 26.1937C39.5121 25.0166 34.8184 24.2367 30.1541 24.2367C30.1541 26.8116 30.2571 31.0786 30.3307 33.5653C33.5972 34.1833 36.0397 34.0508 36.0397 34.0508C36.0397 34.0508 47.9578 33.7124 48.2962 26.1054C48.6641 18.4836 36.3781 11.1856 27.3291 8.89025C18.2948 6.52132 13.1744 8.1987 12.733 8.4194C12.2474 8.65482 12.6889 8.74311 12.6889 8.74311C12.6889 8.74311 13.1744 8.81668 14.0572 9.11095C14.9401 9.40523 14.2338 9.84664 14.2338 9.84664C12.6889 10.3763 10.9673 10.0673 10.6289 9.36109C10.2905 8.66954 10.8496 8.03685 11.5118 7.10988C12.1297 6.15348 12.836 6.18291 12.836 6.18291C24.0185 2.28375 37.6729 9.2728 37.6729 9.2728C50.4445 15.7174 52.6221 23.295 52.3867 26.2378C52.1807 29.1364 51.0624 34.0361 43.1906 36.4198M18.6185 25.8847C17.3531 26.4732 18.236 27.4149 18.236 27.4149C20.6196 29.9604 23.5329 31.5642 26.3285 32.5647C26.6523 28.1506 26.6228 26.5762 26.6228 24.3544C22.297 24.6487 19.7956 25.355 18.6185 25.8847Z" fill="black"></path></svg>