<svg data-v-7ebbabc5="" data-v-1df47d1c="" xmlns="http://www.w3.org/2000/svg" width="1000" height="201.197" viewBox="0 0 264.583 53.233"><g style="stroke-width:2.64139056;" data-v-7ebbabc5=""><g style="stroke-width:2.64139056;" data-v-7ebbabc5=""><path d="M-377.62 1214.57c-15.347 0-27.704 12.35-27.704 27.697v338.115c0 15.347 12.357 27.696 27.703 27.696h212.598a7.23 7.23 0 0 0 7.248-7.246v-38.785a7.233 7.233 0 0 0-7.248-7.248h-180.78v-123.65h162.555a7.23 7.23 0 0 0 7.246-7.249v-36.65a7.23 7.23 0 0 0-7.246-7.246h-162.555V1266.6h180.78a7.23 7.23 0 0 0 7.248-7.246v-37.538a7.23 7.23 0 0 0-7.248-7.246zM340.082 1313.08c-50.585 0-81.997 17.421-103.027 46.387v-30.262a7.233 7.233 0 0 0-7.248-7.248H186.03a7.233 7.233 0 0 0-7.248 7.248v369.125a7.233 7.233 0 0 0 7.248 7.248h44.532a7.233 7.233 0 0 0 7.248-7.248v-126.278c19.512 28.092 51.13 44.724 102.271 44.723 86.006 0 139.56-68.074 139.56-151.937 0-83.862-52.446-151.758-139.56-151.758zm-12.491 48.832c61.877 0 92.32 46.082 92.32 102.926 0 56.845-30.443 102.926-92.32 102.926-61.877 0-92.32-46.081-92.32-102.926 0-56.844 30.443-102.926 92.32-102.926z" transform="matrix(.10017 0 0 .10017 103.681 -117.611)" data-v-7ebbabc5=""></path><path d="M318.527 349.768h11.649c1.062 0 1.917.855 1.917 1.917v71.868a1.913 1.913 0 0 1-1.917 1.918h-11.65a1.913 1.913 0 0 1-1.917-1.918v-71.868c0-1.062.855-1.917 1.918-1.917zM318.36 321.317h11.983c1.062 0 1.918.856 1.918 1.918v11.984a1.913 1.913 0 0 1-1.918 1.918H318.36a1.913 1.913 0 0 1-1.918-1.918v-11.984c0-1.062.855-1.918 1.918-1.918zM257.246 427.772c13.384 0 21.695-4.61 27.26-12.273v8.054c0 1.062.855 1.918 1.917 1.918h11.582a1.914 1.914 0 0 0 1.918-1.918v-100.28a1.914 1.914 0 0 0-1.918-1.918h-11.782a1.914 1.914 0 0 0-1.918 1.918v36.404c-5.54-7.243-13.528-12.258-27.059-12.258-22.756 0-36.925 18.011-36.925 40.2 0 22.189 13.876 40.153 36.925 40.153zm3.305-12.92c-16.372 0-24.426-12.193-24.426-27.233 0-15.04 8.054-27.232 24.426-27.232 16.371 0 24.426 12.192 24.426 27.232s-8.055 27.233-24.426 27.233z" transform="matrix(.37859 0 0 .37859 103.681 -117.611)" data-v-7ebbabc5=""></path><path d="M1445.02 1313.26c-87.114 0-139.561 67.895-139.561 151.758 0 83.862 52.447 151.757 139.56 151.757 50.586 0 81.997-17.42 103.028-46.386v30.441a7.233 7.233 0 0 0 7.248 7.248h43.775a7.233 7.233 0 0 0 7.248-7.248v-271.625a7.233 7.233 0 0 0-7.248-7.248h-43.775a7.233 7.233 0 0 0-7.248 7.248v30.442c-21.03-28.966-52.442-46.387-103.027-46.387zm12.49 48.832c61.877 0 92.32 46.081 92.32 102.926 0 56.844-30.443 102.925-92.32 102.925-61.877 0-92.319-46.081-92.319-102.925 0-56.845 30.442-102.926 92.319-102.926z" transform="matrix(.10017 0 0 .10017 103.681 -117.611)" data-v-7ebbabc5=""></path><path d="M-29.34 349.768c-1.656 0-1.952 1.307-1.2 2.342l24.653 33.76-27.06 37.258c-.751 1.035-.454 2.343 1.201 2.343h13.35c1.157 0 1.758-.396 2.143-.964l18.438-27.21 19.204 27.21c.396.56.987.964 2.144.964h13.86c1.655 0 1.955-1.31 1.2-2.343L11.38 385.87l24.499-33.76c.751-1.036.455-2.343-1.2-2.343H21.59c-1.158 0-1.758.395-2.144.963L3.267 374.509l-16.714-23.778c-.394-.562-.987-.963-2.144-.963z" transform="matrix(.37859 0 0 .37859 103.681 -117.611)" data-v-7ebbabc5=""></path><path d="M656.309 1313.08c-87.602 0-140.327 62.988-140.327 151.848 0 98.005 62.322 151.847 140.327 151.847 94.266 0 131.423-55.439 133.5-57.515 2.389-2.39 1.739-6.837-.268-8.805l-27.246-26.713c-2.007-1.967-5.826-2.27-8.469.395-1.99 2.006-35.16 43.934-89.5 43.933-57.76 0-86.192-35.385-90.02-87.515h215.237c6.674 0 7.038-5.935 7.055-9.83.447-105.836-61.058-157.645-140.29-157.645zm.19 46.055c52.981 0 75.175 31.859 79.857 77.24H576.398c6.29-44.488 29.654-77.24 80.1-77.24z" transform="matrix(.10017 0 0 .10017 103.681 -117.611)" data-v-7ebbabc5=""></path></g><g style="stroke-width:2.64139056;" data-v-7ebbabc5=""><path d="M-247.804 310.658h73.57a26.002 26.002 0 0 1 26.059 26.058v73.57a26.002 26.002 0 0 1-26.059 26.059h-73.57a26.002 26.002 0 0 1-26.059-26.06v-73.569a26.002 26.002 0 0 1 26.059-26.058z" transform="matrix(.37859 0 0 .37859 103.681 -117.611)" data-v-7ebbabc5=""></path><g style="stroke-width:2.64139056;" data-v-7ebbabc5=""><path style="opacity:1;fill:var(--color-bg);fill-opacity:1;stroke:none;stroke-width:.69996846;stroke-linecap:square;stroke-linejoin:round;stroke-miterlimit:4;stroke-dasharray:none;stroke-dashoffset:0;stroke-opacity:.41588787;" d="M-238.716 333.16c-1.17 0-1.907.27-2.527.89l-12.56 12.559a1.244 1.244 0 0 0 .88 2.123h54.445l-33.472 33.471c-.66.66-1.043 1.043-1.043 2.338v8.807c0 .533.243.995.59 1.343.349.348.81.59 1.344.59h8.807c1.294 0 1.678-.383 2.337-1.043l33.472-33.471v54.445a1.243 1.243 0 0 0 2.123.88l12.56-12.56c.62-.62.889-1.356.889-2.528v-59.451a8.393 8.393 0 0 0-8.394-8.393z" transform="matrix(.37859 0 0 .37859 103.681 -117.611)" data-v-7ebbabc5=""></path><path d="M-249.383 397.729h12.081a1.82 1.82 0 0 1 1.824 1.824v12.156a1.82 1.82 0 0 1-1.824 1.824h-12.08a1.82 1.82 0 0 1-1.825-1.824v-12.156a1.82 1.82 0 0 1 1.824-1.824z" style="opacity:1;fill:var(--color-bg);fill-opacity:1;stroke:none;stroke-width:3.96208596;stroke-linecap:square;stroke-linejoin:round;stroke-miterlimit:4;stroke-dasharray:none;stroke-dashoffset:0;stroke-opacity:.41588787;" transform="matrix(.37859 0 0 .37859 103.681 -117.611)" data-v-7ebbabc5=""></path></g></g></g></svg>