<svg data-v-6120c250="" data-v-1df47d1c="" width="122" height="52" viewBox="0 0 122 52" fill="none" xmlns="http://www.w3.org/2000/svg"><path d="M51.0483 18.8196V33.2794H48.5379V21.9325H48.5044L44.0192 33.2794H42.3456L37.76 21.9325H37.7265V33.2794H35.417V18.8196H39.0319L43.1824 29.5306H43.2494L47.6342 18.8196H51.0483ZM53.1235 19.9242C53.1235 19.5225 53.2574 19.1878 53.5586 18.92C53.8599 18.6523 54.1946 18.5184 54.5963 18.5184C55.0314 18.5184 55.3996 18.6523 55.6674 18.92C55.9351 19.1878 56.1025 19.5225 56.1025 19.9242C56.1025 20.3259 55.9686 20.6606 55.6674 20.9283C55.3661 21.1961 55.0314 21.33 54.5963 21.33C54.1611 21.33 53.8264 21.1961 53.5586 20.9283C53.2909 20.6271 53.1235 20.2924 53.1235 19.9242ZM55.8347 22.9032V33.2794H53.3913V22.9032H55.8347ZM63.232 31.5054C63.6001 31.5054 64.0018 31.4384 64.4369 31.2376C64.8721 31.0703 65.2737 30.836 65.6419 30.5682V32.8443C65.2403 33.0786 64.8051 33.2459 64.3031 33.3463C63.801 33.4467 63.2654 33.5137 62.6629 33.5137C61.1232 33.5137 59.8848 33.0451 58.9476 32.0744C57.9769 31.1037 57.5083 29.8653 57.5083 28.3925C57.5083 26.7189 58.0104 25.3466 58.9811 24.2755C59.9517 23.2044 61.3241 22.6689 63.1315 22.6689C63.6001 22.6689 64.0688 22.7358 64.5039 22.8362C64.9725 22.9366 65.3407 23.104 65.6084 23.2379V25.5809C65.2403 25.3131 64.8386 25.0788 64.4704 24.9449C64.0687 24.8111 63.6671 24.7106 63.2654 24.7106C62.2947 24.7106 61.5249 25.0119 60.9224 25.6478C60.3199 26.2838 60.0521 27.1206 60.0521 28.1917C60.0521 29.2293 60.3534 30.0661 60.9224 30.6351C61.4914 31.2041 62.2613 31.5054 63.232 31.5054ZM72.5706 22.7358C72.7714 22.7358 72.9387 22.7358 73.1061 22.7693C73.2735 22.8028 73.4073 22.8362 73.5078 22.8697V25.3466C73.3739 25.2462 73.2065 25.1458 72.9387 25.0788C72.671 25.0119 72.4032 24.9449 72.035 24.9449C71.4325 24.9449 70.9304 25.2127 70.5288 25.7148C70.1271 26.2169 69.8928 26.9867 69.8928 28.0578V33.2794H67.4494V22.9032H69.8928V24.5433H69.9263C70.1606 23.9743 70.4953 23.5391 70.9304 23.2044C71.399 22.9032 71.9346 22.7358 72.5706 22.7358ZM73.6416 28.2586C73.6416 26.5516 74.1437 25.1792 75.0809 24.1751C76.0516 23.1709 77.3905 22.6689 79.0975 22.6689C80.7042 22.6689 81.9761 23.1375 82.8798 24.1082C83.7836 25.0788 84.2522 26.3842 84.2522 28.0243C84.2522 29.6979 83.7501 31.0368 82.8129 32.0409C81.8422 33.0451 80.5368 33.5472 78.8632 33.5472C77.2566 33.5472 75.9847 33.0786 75.0475 32.1414C74.1103 31.1707 73.6416 29.8653 73.6416 28.2586ZM76.1855 28.1582C76.1855 29.2293 76.4198 30.0661 76.9219 30.6351C77.4239 31.2041 78.1269 31.5054 79.0306 31.5054C79.9009 31.5054 80.6038 31.2376 81.0724 30.6351C81.541 30.0661 81.7753 29.2293 81.7753 28.0913C81.7753 26.9867 81.541 26.1499 81.0724 25.5474C80.6038 24.9784 79.9009 24.6772 79.0641 24.6772C78.1603 24.6772 77.4909 24.9784 76.9888 25.5809C76.4198 26.2169 76.1855 27.0537 76.1855 28.1582ZM87.9006 25.6478C87.9006 25.9826 88.001 26.2838 88.2353 26.4846C88.4696 26.6855 88.9382 26.9198 89.7081 27.221C90.6787 27.6227 91.3816 28.0578 91.7498 28.5264C92.1515 29.0285 92.3523 29.5975 92.3523 30.3004C92.3523 31.2711 91.9841 32.0409 91.2143 32.6434C90.4779 33.2459 89.4403 33.5137 88.1684 33.5137C87.7332 33.5137 87.2646 33.4467 86.7291 33.3463C86.1935 33.2459 85.7584 33.112 85.3902 32.9447V30.5347C85.8253 30.836 86.3274 31.1037 86.8295 31.2711C87.3316 31.4384 87.8002 31.5389 88.2353 31.5389C88.7708 31.5389 89.206 31.4719 89.4403 31.3046C89.7081 31.1372 89.8419 30.9029 89.8419 30.5347C89.8419 30.2 89.7081 29.9322 89.4403 29.6645C89.1725 29.4301 88.637 29.1624 87.9006 28.8611C86.9968 28.4929 86.3609 28.0578 85.9927 27.5892C85.6245 27.1206 85.4237 26.5181 85.4237 25.7817C85.4237 24.8445 85.7919 24.0747 86.5282 23.4722C87.2646 22.8697 88.2353 22.5685 89.4068 22.5685C89.775 22.5685 90.1767 22.6019 90.6118 22.7023C91.0469 22.8028 91.4486 22.9032 91.7498 23.0036V25.3801C91.4151 25.1792 91.0469 24.9784 90.6118 24.8111C90.1767 24.6437 89.7415 24.5768 89.3399 24.5768C88.8713 24.5768 88.5031 24.6772 88.2688 24.8445C88.0345 25.0788 87.9006 25.3131 87.9006 25.6478ZM93.3899 28.2586C93.3899 26.5516 93.892 25.1792 94.8292 24.1751C95.7999 23.1709 97.1388 22.6689 98.8458 22.6689C100.452 22.6689 101.724 23.1375 102.628 24.1082C103.532 25.0788 104 26.3842 104 28.0243C104 29.6979 103.498 31.0368 102.561 32.0409C101.59 33.0451 100.285 33.5472 98.6115 33.5472C97.0049 33.5472 95.733 33.0786 94.7957 32.1414C93.892 31.1707 93.3899 29.8653 93.3899 28.2586ZM95.9338 28.1582C95.9338 29.2293 96.1681 30.0661 96.6702 30.6351C97.1722 31.2041 97.8751 31.5054 98.7789 31.5054C99.6491 31.5054 100.352 31.2376 100.821 30.6351C101.289 30.0661 101.524 29.2293 101.524 28.0913C101.524 26.9867 101.289 26.1499 100.821 25.5474C100.352 24.9784 99.6491 24.6772 98.8124 24.6772C97.9086 24.6772 97.2392 24.9784 96.7371 25.5809C96.2016 26.2169 95.9338 27.0537 95.9338 28.1582ZM112.134 24.9115H108.486V33.2794H106.009V24.9115H104.268V22.9032H106.009V21.4639C106.009 20.3928 106.377 19.4891 107.08 18.7862C107.783 18.0833 108.686 17.7485 109.791 17.7485C110.092 17.7485 110.36 17.782 110.594 17.782C110.829 17.782 111.03 17.849 111.197 17.9159V20.0246C111.13 19.9911 110.963 19.9242 110.762 19.8573C110.561 19.7903 110.327 19.7568 110.059 19.7568C109.557 19.7568 109.155 19.9242 108.887 20.2254C108.62 20.5267 108.486 21.0288 108.486 21.6312V22.8697H112.134V20.5267L114.578 19.7903V22.8697H117.054V24.878H114.578V29.7314C114.578 30.3674 114.711 30.8025 114.912 31.0703C115.147 31.338 115.515 31.4719 116.017 31.4719C116.151 31.4719 116.318 31.4384 116.519 31.3715C116.72 31.3046 116.887 31.2376 117.021 31.1372V33.1455C116.854 33.2459 116.619 33.3129 116.251 33.3798C115.883 33.4468 115.548 33.4802 115.18 33.4802C114.142 33.4802 113.373 33.2124 112.87 32.6769C112.368 32.1414 112.101 31.3046 112.101 30.2L112.134 24.9115Z" fill="black" data-v-6120c250=""></path><path d="M15.5015 14H4.0542V25.4473H15.5015V14Z" fill="black" data-v-6120c250=""></path><path d="M28.1539 14H16.7065V25.4473H28.1539V14Z" fill="black" data-v-6120c250=""></path><path d="M15.5015 26.6523H4.0542V38.0997H15.5015V26.6523Z" fill="black" data-v-6120c250=""></path><path d="M28.1539 26.6523H16.7065V38.0997H28.1539V26.6523Z" fill="black" data-v-6120c250=""></path></svg>