<svg data-v-62d3aa48="" data-v-1df47d1c="" width="159" height="51" viewBox="0 0 159 51" fill="none" xmlns="http://www.w3.org/2000/svg"><path data-v-62d3aa48="" fill-rule="evenodd" clip-rule="evenodd" d="M110.743 13.2857H113.908V29.4964H127.625L125.611 32.6632H110.743V13.2857ZM85.8981 32.6632L74.1948 14.197C73.4754 12.9983 71.5573 12.9983 70.7415 14.2452L59.1346 32.6632H62.9717L66.4733 27.0989H73.9556L75.9228 23.933H68.4404L72.5177 17.5548L82.0627 32.6632H85.8981ZM93.0194 13.2918C87.6725 13.2918 84.1526 17.6266 84.1526 22.9744C84.1526 28.3213 87.6734 32.6579 93.0194 32.6579L106.021 32.6421L108.056 29.5034H93.1149C89.5109 29.5034 87.4017 26.5802 87.4017 22.9744C87.4017 19.3686 89.51 16.4454 93.1149 16.4454H106.424L108.389 13.2822L93.0194 13.2918ZM11.8677 16.4454H25.5846C29.1904 16.4454 31.2986 19.3686 31.2986 22.9744C31.2986 26.5802 29.1913 29.5034 25.5846 29.5034H11.8677C8.26191 29.5034 6.15452 26.5802 6.15452 22.9744C6.15452 19.3686 8.26191 16.4454 11.8677 16.4454ZM11.8677 13.2918C6.51992 13.2918 3 17.6266 3 22.9744C3 28.3213 6.51992 32.6579 11.8677 32.6579H25.5846C30.9324 32.6579 34.4523 28.3213 34.4523 22.9744C34.4523 17.6266 30.9324 13.2918 25.5846 13.2918H11.8677ZM131.007 24.5096C131.522 27.375 133.494 29.5034 136.571 29.5034H151.512L149.476 32.6421L136.475 32.6579C131.127 32.6579 127.609 28.3213 127.609 22.9744C127.609 17.6266 131.128 13.2918 136.475 13.2918L151.844 13.283L149.881 16.4463H136.572C133.537 16.4463 131.557 18.5388 131.008 21.3446H149.786L147.771 24.5105L131.007 24.5096ZM52.348 24.79C53.8554 24.7637 55.2921 24.1464 56.3488 23.0711C57.4055 21.9958 57.9976 20.5485 57.9976 19.0409C57.9976 17.5333 57.4055 16.086 56.3488 15.0107C55.2921 13.9354 53.8554 13.3181 52.348 13.2918L36.2083 13.2848V32.6623H39.758V16.4463H52.348C53.0362 16.4463 53.6961 16.7197 54.1827 17.2063C54.6693 17.6928 54.9426 18.3528 54.9426 19.0409C54.9426 19.729 54.6693 20.389 54.1827 20.8756C53.6961 21.3621 53.0362 21.6355 52.348 21.6355H42.2518L53.6414 32.6404H58.2233L50.0698 24.797L52.348 24.79ZM155.16 13.3032C155.983 13.3032 156.634 13.9534 156.634 14.8156C156.634 15.6919 155.984 16.3368 155.16 16.3368C154.327 16.3368 153.678 15.6919 153.678 14.8156C153.678 13.9534 154.327 13.3032 155.16 13.3032V13C154.158 13 153.312 13.7702 153.312 14.8147C153.312 15.8697 154.159 16.64 155.16 16.64C156.153 16.64 157 15.8697 157 14.8147C157 13.7702 156.153 13 155.16 13V13.3032Z" fill="#0F0F0F"></path><path data-v-62d3aa48="" fill-rule="evenodd" clip-rule="evenodd" d="M154.775 14.0406H155.21C155.431 14.0406 155.666 14.0888 155.666 14.349C155.666 14.6715 155.425 14.6916 155.155 14.6916H154.774V14.9615H155.141L155.695 15.872H156.051L155.453 14.9475C155.762 14.909 155.998 14.746 155.998 14.3701C155.998 13.9556 155.751 13.7725 155.256 13.7725H154.455V15.872H154.773V14.0406H154.775Z" fill="#0F0F0F"></path></svg>